<?xml version="1.0" encoding="UTF-8" standalone="no"?>
<svg
   width="1000"
   height="1000"
   viewBox="0 0 264.58333 264.58334"
   version="1.1"
   id="svg8"
   sodipodi:docname="zdlogo-black.svg"
   inkscape:version="1.1 (c68e22c387, 2021-05-23)"
   xmlns:inkscape="http://www.inkscape.org/namespaces/inkscape"
   xmlns:sodipodi="http://sodipodi.sourceforge.net/DTD/sodipodi-0.dtd"
   xmlns="http://www.w3.org/2000/svg"
   xmlns:svg="http://www.w3.org/2000/svg"
   xmlns:rdf="http://www.w3.org/1999/02/22-rdf-syntax-ns#"
   xmlns:cc="http://creativecommons.org/ns#"
   xmlns:dc="http://purl.org/dc/elements/1.1/">
  <defs
     id="defs2" />
  <sodipodi:namedview
     id="base"
     pagecolor="#ffffff"
     bordercolor="#666666"
     borderopacity="1.0"
     inkscape:pageopacity="0.0"
     inkscape:pageshadow="2"
     inkscape:zoom="0.50000001"
     inkscape:cx="633.99998"
     inkscape:cy="654.99998"
     inkscape:document-units="mm"
     inkscape:current-layer="layer1"
     inkscape:document-rotation="0"
     showgrid="false"
     units="px"
     inkscape:snap-page="true"
     inkscape:window-width="1920"
     inkscape:window-height="1057"
     inkscape:window-x="-8"
     inkscape:window-y="-8"
     inkscape:window-maximized="1"
     showguides="true"
     inkscape:guide-bbox="true"
     inkscape:pagecheckerboard="0">
    <sodipodi:guide
       position="234.39551,42.67285"
       orientation="0,-1"
       id="guide1465" />
    <sodipodi:guide
       position="231.65191,42.672824"
       orientation="1,0"
       id="guide1140" />
    <sodipodi:guide
       position="226.81034,64.573815"
       orientation="0,-1"
       id="guide1332" />
  </sodipodi:namedview>
  <metadata
     id="metadata5">
    <rdf:RDF>
      <cc:Work
         rdf:about="">
        <dc:format>image/svg+xml</dc:format>
        <dc:type
           rdf:resource="http://purl.org/dc/dcmitype/StillImage" />
      </cc:Work>
    </rdf:RDF>
  </metadata>
  <g
     inkscape:label="Layer 1"
     inkscape:groupmode="layer"
     id="layer1">
    <path
       id="path944"
       style="font-style:normal;font-variant:normal;font-weight:normal;font-stretch:normal;font-size:92.7147px;line-height:1.25;font-family:Impact;-inkscape-font-specification:'Impact, Normal';font-variant-ligatures:normal;font-variant-caps:normal;font-variant-numeric:normal;font-variant-east-asian:normal;stroke-width:1.1755"
       d="m 84.795347,42.672851 c -6.692871,0 -12.977997,1.305227 -18.854663,3.917075 -5.713423,2.448607 -10.773505,5.877668 -15.180985,10.285161 -4.244265,4.24425 -7.672273,9.304332 -10.284126,15.180984 -2.448608,5.87666 -3.673163,12.161803 -3.673163,18.854663 0,6.69286 1.224555,12.976446 3.673163,18.853106 2.611853,5.71341 6.039861,10.77504 10.284126,15.18254 4.40748,4.24425 9.467562,7.67228 15.180985,10.28413 7.890296,3.06284 14.897756,3.67161 21.786268,3.67161 4.897217,0 9.468072,0.89926 13.712338,2.69492 2.54057,1.07486 4.87158,2.41866 7.00267,4.01991 12.0335,7.71273 19.33125,21.00463 19.3797,35.29759 -0.005,21.65666 -16.4409,38.88642 -37.994578,40.99595 46.714878,-0.55649 96.931438,-0.0527 137.953848,0 l -0.0594,-12.73308 H 186.1804 v -9.16791 h -9.70173 v 1.65933 c 0,0.33184 -0.49811,0.66404 -0.82993,0.66404 -0.33187,0 -0.8294,-0.3322 -0.8294,-0.66404 v -1.65933 h -9.95547 v 1.65933 c 0,0.33184 -0.49802,0.66404 -0.82992,0.66404 -0.33185,0 -0.82941,-0.3322 -0.82941,-0.66404 v -1.65933 h -9.95547 v 1.65933 c 0,0.33184 -0.49858,0.66404 -0.83044,0.66404 -0.33185,0 -0.82888,-0.3322 -0.82888,-0.66404 v -1.65933 h -9.9565 v 1.65933 c 0,0.33184 -0.49755,0.66404 -0.82941,0.66404 -0.33187,0 -0.82992,-0.3322 -0.82992,-0.66404 v -1.71721 c -0.3075,-0.11497 -0.49713,-0.39469 -0.49713,-0.77101 0,-0.37631 0.18953,-0.6576 0.49713,-0.77257 v -6.69468 c 0,-0.33185 0.49805,-0.66456 0.82992,-0.66456 0.33186,0 0.82941,0.33271 0.82941,0.66456 v 6.63681 h 1.49293 v -1.65933 c 0,-0.16593 0.16753,-0.33177 0.33331,-0.33177 0.166,0 0.33073,0.16585 0.33073,0.33177 v 1.65933 h 2.32389 v -1.65933 c 0,-0.16593 0.16496,-0.33177 0.33073,-0.33177 0.16617,0 0.33331,0.16585 0.33331,0.33177 v 1.65933 h 2.15594 v -1.65933 c 0,-0.16593 0.16651,-0.33177 0.33228,-0.33177 0.16603,0 0.33228,0.16585 0.33228,0.33177 v 1.65933 h 1.9911 v -6.63681 c 0,-0.33185 0.49703,-0.66456 0.82888,-0.66456 0.33186,0 0.83044,0.33271 0.83044,0.66456 v 6.63681 h 1.82522 v -1.65933 c 0,-0.16593 0.16547,-0.33177 0.33124,-0.33177 0.166,0 0.33177,0.16585 0.33177,0.33177 v 1.65933 h 2.32337 v -1.65933 c 0,-0.16593 0.16651,-0.33177 0.33228,-0.33177 0.16605,0 0.33228,0.16585 0.33228,0.33177 v 1.65933 h 2.15594 v -1.65933 c 0,-0.16593 0.16651,-0.33177 0.33228,-0.33177 0.16603,0 0.33176,0.16585 0.33176,0.33177 v 1.65933 h 1.65933 v -6.63681 c 0,-0.33185 0.49756,-0.66456 0.82941,-0.66456 0.3319,0 0.82992,0.33271 0.82992,0.66456 v 6.63681 h 2.15749 v -1.65933 c 0,-0.16593 0.16495,-0.33177 0.33073,-0.33177 0.16602,0 0.33228,0.16585 0.33228,0.33177 v 1.65933 h 2.32337 v -1.65933 c 0,-0.16593 0.1665,-0.33177 0.33228,-0.33177 0.16602,0 0.33073,0.16585 0.33073,0.33177 v 1.65933 h 2.15749 v -1.65933 c 0,-0.16593 0.1665,-0.33177 0.33228,-0.33177 0.16601,0 0.33176,0.16585 0.33176,0.33177 v 1.65933 h 1.32706 v -6.63681 c 0,-0.33185 0.49753,-0.66456 0.8294,-0.66456 0.33182,0 0.82993,0.33271 0.82993,0.66456 v 6.63681 h 2.48977 v -1.65933 c 0,-0.16593 0.16495,-0.33177 0.33073,-0.33177 0.16598,0 0.33228,0.16585 0.33228,0.33177 v 1.65933 h 2.32337 v -1.65933 c 0,-0.16593 0.16649,-0.33177 0.33227,-0.33177 0.16601,0 0.33073,0.16585 0.33073,0.33177 v 1.65933 h 2.1575 v -1.65933 c 0,-0.16593 0.16598,-0.33177 0.33176,-0.33177 0.166,0 0.33228,0.16585 0.33228,0.33177 v 1.65933 h 0.74104 v -53.81739 l 36.5311,-0.18707 v -33.94263 h -46.4468 v -5.9831 l -15.2368,5.9831 -29.23646,-15.990234 -1.79007,-0.978751 30.92214,-16.864087 15.34119,6.024438 v -6.024438 h 51.45732 l -0.29456,-33.897157 h -94.93684 -7.91734 z M 186.18037,198.35017 v 1.65933 h 1.08417 v 1.65933 c 0,0.33184 0.49701,0.66404 0.82889,0.66404 0.33187,0 0.83044,-0.3322 0.83044,-0.66404 v -1.65933 h 10.78435 v 1.65933 c 0,0.33184 0.49862,0.66404 0.83045,0.66404 0.33189,0 0.82889,-0.3322 0.82889,-0.66404 v -1.65933 h 9.95701 v 1.65933 c 0,0.33184 0.49703,0.66404 0.82889,0.66404 0.33181,0 0.83044,-0.3322 0.83044,-0.66404 v -1.65933 h 9.95546 v 1.65933 c 0,0.33184 0.49702,0.66404 0.82889,0.66404 0.33184,0 0.83044,-0.3322 0.83044,-0.66404 v -1.65933 -1.65933 -6.63681 c 0,-0.33185 -0.4986,-0.66456 -0.83044,-0.66456 -0.33187,0 -0.82889,0.33271 -0.82889,0.66456 v 6.63681 h -1.65933 v -1.65933 c 0,-0.16592 -0.16574,-0.33177 -0.33176,-0.33177 -0.16578,0 -0.33228,0.16584 -0.33228,0.33177 v 1.65933 h -2.15749 v -1.65933 c 0,-0.16592 -0.16473,-0.33177 -0.33073,-0.33177 -0.16578,0 -0.33228,0.16584 -0.33228,0.33177 v 1.65933 h -2.32337 v -1.65933 c 0,-0.16592 -0.16628,-0.33177 -0.33228,-0.33177 -0.16577,0 -0.33073,0.16584 -0.33073,0.33177 v 1.65933 h -1.82521 v -6.63681 c 0,-0.33185 -0.49863,-0.66456 -0.83044,-0.66456 -0.33186,0 -0.82889,0.33271 -0.82889,0.66456 v 6.63681 h -1.99161 v -1.65933 c 0,-0.16592 -0.16577,-0.33177 -0.33176,-0.33177 -0.16577,0 -0.33228,0.16584 -0.33228,0.33177 v 1.65933 h -2.15749 v -1.65933 c 0,-0.16592 -0.1656,-0.33177 -0.33177,-0.33177 -0.16576,0 -0.33124,0.16584 -0.33124,0.33177 v 1.65933 h -2.32337 v -1.65933 c 0,-0.16592 -0.16578,-0.33177 -0.33177,-0.33177 -0.16577,0 -0.33228,0.16584 -0.33228,0.33177 v 1.65933 h -1.49344 v -6.63681 c 0,-0.33185 -0.497,-0.66456 -0.82889,-0.66456 -0.33183,0 -0.83045,0.33271 -0.83045,0.66456 v 6.63681 h -2.32182 v -1.65933 c 0,-0.16592 -0.16614,-0.33177 -0.33228,-0.33177 -0.16577,0 -0.33227,0.16584 -0.33228,0.33177 v 1.65933 h -2.15697 v -1.65933 c 0,-0.16592 -0.16628,-0.33177 -0.33228,-0.33177 -0.16578,0 -0.33073,0.16584 -0.33073,0.33177 v 1.65933 h -2.32389 v -1.65933 c 0,-0.16592 -0.16562,-0.33177 -0.33176,-0.33177 -0.16578,0 -0.33228,0.16584 -0.33228,0.33177 v 1.65933 h -1.99006 v -6.63681 c 0,-0.33185 -0.49857,-0.66456 -0.83044,-0.66456 -0.33188,0 -0.82889,0.33271 -0.82889,0.66456 v 6.63681 z M 161.44699,87.987398 c -2.93282,8e-6 -5.34127,2.409465 -5.34127,5.34231 0,2.932854 2.40845,5.341276 5.34127,5.341276 2.40916,0.10476 4.39932,-1.465765 5.13251,-3.66541 h 17.65577 c 1.47836,0 1.47836,-3.246837 0,-3.246829 h -17.76016 c -0.73324,-2.199637 -2.72375,-3.771347 -5.02812,-3.771347 z"
       sodipodi:nodetypes="scccsccccsccccccccsssccsssccsssccssscscsssccsssccsssccsssccsssccsssccsssccsssccsssccsssccsssccsssccsssccsssccsssccssscccccccccccccccccscccsssccsssccsssccsssccsssccsssccsssccsssccsssccsssccsssccsssccsssccsssccsssccsssccsssccssccsccs" />
    <g
       id="g1002"
       transform="matrix(0.26458333,0,0,0.26458333,271.59837,-60.764396)" />
    <g
       id="g1004"
       transform="matrix(0.26458333,0,0,0.26458333,271.59837,-60.764396)" />
    <g
       id="g1006"
       transform="matrix(0.26458333,0,0,0.26458333,271.59837,-60.764396)" />
    <g
       id="g1008"
       transform="matrix(0.26458333,0,0,0.26458333,271.59837,-60.764396)" />
    <g
       id="g1010"
       transform="matrix(0.26458333,0,0,0.26458333,271.59837,-60.764396)" />
    <g
       id="g1012"
       transform="matrix(0.26458333,0,0,0.26458333,271.59837,-60.764396)" />
    <g
       id="g1014"
       transform="matrix(0.26458333,0,0,0.26458333,271.59837,-60.764396)" />
    <g
       id="g1016"
       transform="matrix(0.26458333,0,0,0.26458333,271.59837,-60.764396)" />
    <g
       id="g1018"
       transform="matrix(0.26458333,0,0,0.26458333,271.59837,-60.764396)" />
    <g
       id="g1020"
       transform="matrix(0.26458333,0,0,0.26458333,271.59837,-60.764396)" />
    <g
       id="g1022"
       transform="matrix(0.26458333,0,0,0.26458333,271.59837,-60.764396)" />
    <g
       id="g1024"
       transform="matrix(0.26458333,0,0,0.26458333,271.59837,-60.764396)" />
    <g
       id="g1026"
       transform="matrix(0.26458333,0,0,0.26458333,271.59837,-60.764396)" />
    <g
       id="g1028"
       transform="matrix(0.26458333,0,0,0.26458333,271.59837,-60.764396)" />
    <g
       id="g1030"
       transform="matrix(0.26458333,0,0,0.26458333,271.59837,-60.764396)" />
    <g
       id="g1205"
       transform="matrix(0.26458333,0,0,0.26458333,40.649698,11.370321)" />
    <g
       id="g1207"
       transform="matrix(0.26458333,0,0,0.26458333,40.649698,11.370321)" />
    <g
       id="g1209"
       transform="matrix(0.26458333,0,0,0.26458333,40.649698,11.370321)" />
    <g
       id="g1211"
       transform="matrix(0.26458333,0,0,0.26458333,40.649698,11.370321)" />
    <g
       id="g1213"
       transform="matrix(0.26458333,0,0,0.26458333,40.649698,11.370321)" />
    <g
       id="g1215"
       transform="matrix(0.26458333,0,0,0.26458333,40.649698,11.370321)" />
    <g
       id="g1217"
       transform="matrix(0.26458333,0,0,0.26458333,40.649698,11.370321)" />
    <g
       id="g1219"
       transform="matrix(0.26458333,0,0,0.26458333,40.649698,11.370321)" />
    <g
       id="g1221"
       transform="matrix(0.26458333,0,0,0.26458333,40.649698,11.370321)" />
    <g
       id="g1223"
       transform="matrix(0.26458333,0,0,0.26458333,40.649698,11.370321)" />
    <g
       id="g1225"
       transform="matrix(0.26458333,0,0,0.26458333,40.649698,11.370321)" />
    <g
       id="g1227"
       transform="matrix(0.26458333,0,0,0.26458333,40.649698,11.370321)" />
    <g
       id="g1229"
       transform="matrix(0.26458333,0,0,0.26458333,40.649698,11.370321)" />
    <g
       id="g1231"
       transform="matrix(0.26458333,0,0,0.26458333,40.649698,11.370321)" />
    <g
       id="g1233"
       transform="matrix(0.26458333,0,0,0.26458333,40.649698,11.370321)" />
  </g>
</svg>
