<svg width="72" height="49" viewBox="0 0 72 49" fill="none" xmlns="http://www.w3.org/2000/svg">
<path d="M47.7007 4.1901e-06C43.6054 -0.00241628 39.5776 1.04387 36 3.03962C32.4224 1.04387 28.3946 -0.00241628 24.2993 4.1901e-06C10.7867 0.0928604 -0.0921413 11.137 0.000588432 24.6681C0.0924394 38.068 10.9177 48.908 24.2993 49C28.3946 49.0024 32.4224 47.9561 36 45.9604C39.5776 47.9561 43.6054 49.0024 47.7007 49C61.2133 48.9071 72.0921 37.8627 71.9994 24.3319C71.9076 10.932 61.0821 0.0919804 47.7007 4.1901e-06ZM24.2993 45.3949C12.7751 45.304 3.50653 35.8751 3.5975 24.3352C3.68737 12.9238 12.9034 3.69512 24.2993 3.60512C27.1496 3.60534 29.9684 4.20274 32.5743 5.35883C22.0173 13.8338 20.3203 29.2742 28.7838 39.8455C29.9049 41.2458 31.1758 42.5185 32.5743 43.6412C29.9684 44.7973 27.1496 45.3947 24.2993 45.3949ZM36 41.7207C30.3582 37.8084 26.9942 31.3718 26.9995 24.5C26.9942 17.6282 30.3582 11.1916 36 7.27933C45.4978 13.8765 47.8565 26.9345 41.2682 36.4452C39.8413 38.505 38.057 40.292 36 41.7207ZM47.7007 45.3949C44.8504 45.3947 42.0316 44.7973 39.4257 43.6412C49.9827 35.1662 51.6797 19.7258 43.2162 9.1545C42.0951 7.75417 40.8242 6.48147 39.4257 5.35883C42.0316 4.20274 44.8504 3.60534 47.7007 3.60512C59.2249 3.696 68.4935 13.1247 68.4027 24.6646C68.3129 36.0762 59.0968 45.3049 47.7007 45.3949Z" fill="#0066FF"/>
</svg>
