<?xml version="1.0" encoding="UTF-8" standalone="no"?>
<svg
   width="1000"
   height="1000"
   viewBox="0 0 264.58333 264.58334"
   version="1.1"
   id="svg8"
   sodipodi:docname="zdlogo-black.svg"
   inkscape:version="1.1 (c68e22c387, 2021-05-23)"
   xmlns:inkscape="http://www.inkscape.org/namespaces/inkscape"
   xmlns:sodipodi="http://sodipodi.sourceforge.net/DTD/sodipodi-0.dtd"
   xmlns="http://www.w3.org/2000/svg"
   xmlns:svg="http://www.w3.org/2000/svg"
   xmlns:rdf="http://www.w3.org/1999/02/22-rdf-syntax-ns#"
   xmlns:cc="http://creativecommons.org/ns#"
   xmlns:dc="http://purl.org/dc/elements/1.1/">
  <defs
     id="defs2" />
  <sodipodi:namedview
     id="base"
     pagecolor="#ffffff"
     bordercolor="#666666"
     borderopacity="1.0"
     inkscape:pageopacity="0.0"
     inkscape:pageshadow="2"
     inkscape:zoom="0.3535534"
     inkscape:cx="807.51593"
     inkscape:cy="558.61435"
     inkscape:document-units="mm"
     inkscape:current-layer="layer1"
     inkscape:document-rotation="0"
     showgrid="false"
     units="px"
     inkscape:snap-page="true"
     inkscape:window-width="1920"
     inkscape:window-height="1057"
     inkscape:window-x="-8"
     inkscape:window-y="-8"
     inkscape:window-maximized="1"
     showguides="true"
     inkscape:guide-bbox="true"
     inkscape:pagecheckerboard="0" />
  <metadata
     id="metadata5">
    <rdf:RDF>
      <cc:Work
         rdf:about="">
        <dc:format>image/svg+xml</dc:format>
        <dc:type
           rdf:resource="http://purl.org/dc/dcmitype/StillImage" />
      </cc:Work>
    </rdf:RDF>
  </metadata>
  <g
     inkscape:label="Layer 1"
     inkscape:groupmode="layer"
     id="layer1">
    <path
       id="path944"
       style="font-style:normal;font-variant:normal;font-weight:normal;font-stretch:normal;font-size:92.7147px;line-height:1.25;font-family:Impact;-inkscape-font-specification:'Impact, Normal';font-variant-ligatures:normal;font-variant-caps:normal;font-variant-numeric:normal;font-variant-east-asian:normal;stroke-width:1.62689"
       d="m 66.690288,8.3842333 c -9.26298,0 -17.961639,1.8064437 -26.094986,5.4212587 -7.907419,3.38889 -14.910607,8.134734 -21.010591,14.234736 C 13.710619,33.914299 8.9662308,40.917488 5.3514085,49.050817 1.9625176,57.184155 0.267725,65.882838 0.267725,75.145807 c 0,9.262962 1.6947926,17.95949 5.0836835,26.092833 3.6148223,7.90739 8.3592105,14.91273 14.2333025,21.01273 6.099984,5.87408 13.103172,10.6185 21.010591,14.23332 10.920225,4.23898 20.618598,5.08152 30.152349,5.08152 6.777784,0 13.103881,1.24459 18.97797,3.72979 3.516167,1.48762 6.742307,3.34744 9.691747,5.56359 16.654462,10.67448 26.754582,29.07055 26.821642,48.85211 -0.007,29.97298 -22.75432,53.81909 -52.584766,56.73868 64.653716,-0.77018 134.153776,-0.073 190.929086,0 l -0.0822,-17.62267 H 207.00786 V 226.13927 H 193.5806 v 2.29653 c 0,0.45925 -0.68939,0.91903 -1.14863,0.91903 -0.45932,0 -1.14788,-0.45978 -1.14788,-0.91903 v -2.29653 h -13.77845 v 2.29653 c 0,0.45925 -0.68926,0.91903 -1.14861,0.91903 -0.45929,0 -1.14791,-0.45978 -1.14791,-0.91903 v -2.29653 H 161.4307 v 2.29653 c 0,0.45925 -0.69003,0.91903 -1.14934,0.91903 -0.45927,0 -1.14717,-0.45978 -1.14717,-0.91903 v -2.29653 h -13.77986 v 2.29653 c 0,0.45925 -0.6886,0.91903 -1.14792,0.91903 -0.45931,0 -1.14859,-0.45978 -1.14859,-0.91903 v -2.37665 c -0.42559,-0.1591 -0.68804,-0.54625 -0.68804,-1.06707 0,-0.52082 0.26231,-0.91013 0.68804,-1.06924 v -9.2655 c 0,-0.45927 0.68928,-0.91975 1.14859,-0.91975 0.45932,0 1.14792,0.46048 1.14792,0.91975 v 9.1854 h 2.06623 v -2.29652 c 0,-0.22965 0.23185,-0.45918 0.4613,-0.45918 0.22975,0 0.45773,0.22954 0.45773,0.45918 v 2.29652 h 3.21629 v -2.29652 c 0,-0.22965 0.22831,-0.45918 0.45772,-0.45918 0.22999,0 0.46131,0.22954 0.46131,0.45918 v 2.29652 h 2.98384 v -2.29652 c 0,-0.22965 0.23045,-0.45918 0.45986,-0.45918 0.2298,0 0.45989,0.22954 0.45989,0.45918 v 2.29652 h 2.7557 v -9.1854 c 0,-0.45927 0.6879,-0.91975 1.14717,-0.91975 0.45931,0 1.14934,0.46048 1.14934,0.91975 v 9.1854 h 2.52612 v -2.29652 c 0,-0.22965 0.229,-0.45918 0.45843,-0.45918 0.22974,0 0.45918,0.22954 0.45918,0.45918 v 2.29652 h 3.21555 v -2.29652 c 0,-0.22965 0.23046,-0.45918 0.45988,-0.45918 0.22982,0 0.45988,0.22954 0.45988,0.45918 v 2.29652 h 2.98384 v -2.29652 c 0,-0.22965 0.23045,-0.45918 0.45987,-0.45918 0.22978,0 0.45917,0.22954 0.45917,0.45918 v 2.29652 h 2.29652 v -9.1854 c 0,-0.45927 0.68862,-0.91975 1.14791,-0.91975 0.45935,0 1.14861,0.46048 1.14861,0.91975 v 9.1854 h 2.98599 v -2.29652 c 0,-0.22965 0.22829,-0.45918 0.45772,-0.45918 0.22977,0 0.45988,0.22954 0.45988,0.45918 v 2.29652 h 3.21556 v -2.29652 c 0,-0.22965 0.23044,-0.45918 0.45989,-0.45918 0.22977,0 0.45772,0.22954 0.45772,0.45918 v 2.29652 h 2.98598 v -2.29652 c 0,-0.22965 0.23044,-0.45918 0.45988,-0.45918 0.22976,0 0.45916,0.22954 0.45916,0.45918 v 2.29652 h 1.83667 v -9.1854 c 0,-0.45927 0.68857,-0.91975 1.14789,-0.91975 0.45924,0 1.14863,0.46048 1.14863,0.91975 v 9.1854 h 3.44586 v -2.29652 c 0,-0.22965 0.22829,-0.45918 0.45772,-0.45918 0.22973,0 0.45989,0.22954 0.45989,0.45918 v 2.29652 h 3.21556 v -2.29652 c 0,-0.22965 0.23041,-0.45918 0.45986,-0.45918 0.22976,0 0.45773,0.22954 0.45773,0.45918 v 2.29652 h 2.98599 v -2.29652 c 0,-0.22965 0.22973,-0.45918 0.45917,-0.45918 0.22974,0 0.45987,0.22954 0.45987,0.45918 v 2.29652 h 1.02561 v -74.48365 l 50.5593,-0.2589 v -46.97685 h -64.2827 v -8.280647 l -21.08784,8.280647 -40.46345,-22.13059 -2.47748,-1.354598 42.79645,-23.340014 21.23232,8.337864 v -8.337864 h 71.21729 L 264.58337,8.5166594 132.70092,8.3842333 H 121.74323 Z M 207.00786,223.84274 v 2.29653 h 1.50051 v 2.29653 c 0,0.45925 0.68786,0.91903 1.1472,0.91903 0.45929,0 1.14933,-0.45978 1.14933,-0.91903 v -2.29653 h 14.92561 v 2.29653 c 0,0.45925 0.69008,0.91903 1.14934,0.91903 0.45936,0 1.14719,-0.45978 1.14719,-0.91903 v -2.29653 h 13.78057 v 2.29653 c 0,0.45925 0.68791,0.91903 1.1472,0.91903 0.45923,0 1.14933,-0.45978 1.14933,-0.91903 v -2.29653 h 13.77843 v 2.29653 c 0,0.45925 0.68788,0.91903 1.14719,0.91903 0.45928,0 1.14934,-0.45978 1.14934,-0.91903 v -2.29653 -2.29653 -9.1854 c 0,-0.45927 -0.69006,-0.91975 -1.14934,-0.91975 -0.4593,0 -1.14719,0.46048 -1.14719,0.91975 v 9.1854 h -2.29653 v -2.29652 c 0,-0.22964 -0.22938,-0.45918 -0.45916,-0.45918 -0.22944,0 -0.45986,0.22953 -0.45986,0.45918 v 2.29652 h -2.986 v -2.29652 c 0,-0.22964 -0.22797,-0.45918 -0.45771,-0.45918 -0.22945,0 -0.45989,0.22953 -0.45989,0.45918 v 2.29652 h -3.21555 v -2.29652 c 0,-0.22964 -0.23014,-0.45918 -0.45989,-0.45918 -0.22942,0 -0.45771,0.22953 -0.45771,0.45918 v 2.29652 h -2.52612 v -9.1854 c 0,-0.45927 -0.6901,-0.91975 -1.14933,-0.91975 -0.45929,0 -1.1472,0.46048 -1.1472,0.91975 v 9.1854 h -2.75639 v -2.29652 c 0,-0.22964 -0.22944,-0.45918 -0.45916,-0.45918 -0.22943,0 -0.45988,0.22953 -0.45988,0.45918 v 2.29652 h -2.98598 v -2.29652 c 0,-0.22964 -0.2292,-0.45918 -0.45918,-0.45918 -0.2294,0 -0.45843,0.22953 -0.45843,0.45918 v 2.29652 h -3.21556 v -2.29652 c 0,-0.22964 -0.22944,-0.45918 -0.45918,-0.45918 -0.22942,0 -0.45988,0.22953 -0.45988,0.45918 v 2.29652 h -2.06693 v -9.1854 c 0,-0.45927 -0.68783,-0.91975 -1.14719,-0.91975 -0.45926,0 -1.14934,0.46048 -1.14934,0.91975 v 9.1854 h -3.21342 v -2.29652 c 0,-0.22964 -0.22993,-0.45918 -0.45988,-0.45918 -0.22942,0 -0.45986,0.22953 -0.45987,0.45918 v 2.29652 h -2.98526 v -2.29652 c 0,-0.22964 -0.23014,-0.45918 -0.45989,-0.45918 -0.22944,0 -0.45772,0.22953 -0.45772,0.45918 v 2.29652 h -3.21629 v -2.29652 c 0,-0.22964 -0.22921,-0.45918 -0.45915,-0.45918 -0.22944,0 -0.45988,0.22953 -0.45988,0.45918 v 2.29652 h -2.75425 v -9.1854 c 0,-0.45927 -0.69004,-0.91975 -1.14933,-0.91975 -0.45934,0 -1.1472,0.46048 -1.1472,0.91975 v 9.1854 z M 172.7767,71.099886 c -4.05905,1.2e-5 -7.39237,3.334717 -7.39237,7.393797 0,4.059094 3.33332,7.39236 7.39237,7.39236 3.33429,0.144992 6.08869,-2.028624 7.10343,-5.072953 h 24.43571 c 2.04606,0 2.04606,-4.493648 0,-4.493637 h -24.5802 c -1.0148,-3.044309 -3.76968,-5.219567 -6.95894,-5.219567 z"
       sodipodi:nodetypes="scccsccccsccccccccsssccsssccsssccssscscsssccsssccsssccsssccsssccsssccsssccsssccsssccsssccsssccsssccsssccsssccsssccssscccccccccccccccccscccsssccsssccsssccsssccsssccsssccsssccsssccsssccsssccsssccsssccsssccsssccsssccsssccsssccssccsccs" />
    <g
       id="g1002"
       transform="matrix(0.26458333,0,0,0.26458333,271.59837,-60.764396)" />
    <g
       id="g1004"
       transform="matrix(0.26458333,0,0,0.26458333,271.59837,-60.764396)" />
    <g
       id="g1006"
       transform="matrix(0.26458333,0,0,0.26458333,271.59837,-60.764396)" />
    <g
       id="g1008"
       transform="matrix(0.26458333,0,0,0.26458333,271.59837,-60.764396)" />
    <g
       id="g1010"
       transform="matrix(0.26458333,0,0,0.26458333,271.59837,-60.764396)" />
    <g
       id="g1012"
       transform="matrix(0.26458333,0,0,0.26458333,271.59837,-60.764396)" />
    <g
       id="g1014"
       transform="matrix(0.26458333,0,0,0.26458333,271.59837,-60.764396)" />
    <g
       id="g1016"
       transform="matrix(0.26458333,0,0,0.26458333,271.59837,-60.764396)" />
    <g
       id="g1018"
       transform="matrix(0.26458333,0,0,0.26458333,271.59837,-60.764396)" />
    <g
       id="g1020"
       transform="matrix(0.26458333,0,0,0.26458333,271.59837,-60.764396)" />
    <g
       id="g1022"
       transform="matrix(0.26458333,0,0,0.26458333,271.59837,-60.764396)" />
    <g
       id="g1024"
       transform="matrix(0.26458333,0,0,0.26458333,271.59837,-60.764396)" />
    <g
       id="g1026"
       transform="matrix(0.26458333,0,0,0.26458333,271.59837,-60.764396)" />
    <g
       id="g1028"
       transform="matrix(0.26458333,0,0,0.26458333,271.59837,-60.764396)" />
    <g
       id="g1030"
       transform="matrix(0.26458333,0,0,0.26458333,271.59837,-60.764396)" />
    <g
       id="g1205"
       transform="matrix(0.26458333,0,0,0.26458333,40.649698,11.370321)" />
    <g
       id="g1207"
       transform="matrix(0.26458333,0,0,0.26458333,40.649698,11.370321)" />
    <g
       id="g1209"
       transform="matrix(0.26458333,0,0,0.26458333,40.649698,11.370321)" />
    <g
       id="g1211"
       transform="matrix(0.26458333,0,0,0.26458333,40.649698,11.370321)" />
    <g
       id="g1213"
       transform="matrix(0.26458333,0,0,0.26458333,40.649698,11.370321)" />
    <g
       id="g1215"
       transform="matrix(0.26458333,0,0,0.26458333,40.649698,11.370321)" />
    <g
       id="g1217"
       transform="matrix(0.26458333,0,0,0.26458333,40.649698,11.370321)" />
    <g
       id="g1219"
       transform="matrix(0.26458333,0,0,0.26458333,40.649698,11.370321)" />
    <g
       id="g1221"
       transform="matrix(0.26458333,0,0,0.26458333,40.649698,11.370321)" />
    <g
       id="g1223"
       transform="matrix(0.26458333,0,0,0.26458333,40.649698,11.370321)" />
    <g
       id="g1225"
       transform="matrix(0.26458333,0,0,0.26458333,40.649698,11.370321)" />
    <g
       id="g1227"
       transform="matrix(0.26458333,0,0,0.26458333,40.649698,11.370321)" />
    <g
       id="g1229"
       transform="matrix(0.26458333,0,0,0.26458333,40.649698,11.370321)" />
    <g
       id="g1231"
       transform="matrix(0.26458333,0,0,0.26458333,40.649698,11.370321)" />
    <g
       id="g1233"
       transform="matrix(0.26458333,0,0,0.26458333,40.649698,11.370321)" />
  </g>
</svg>
